<svg xmlns="http://www.w3.org/2000/svg" width="1200" height="340" viewBox="0 0 1200 340" role="img" aria-label="K-beat hero">
  <defs>
    <linearGradient id="bg" x1="0" y1="0" x2="1" y2="1">
      <stop offset="0%" stop-color="#0b1020"/>
      <stop offset="45%" stop-color="#121a3a"/>
      <stop offset="100%" stop-color="#1a0b25"/>
    </linearGradient>
    <radialGradient id="glow1" cx="20%" cy="15%" r="65%">
      <stop offset="0%" stop-color="#7c8bff" stop-opacity="0.55"/>
      <stop offset="65%" stop-color="#7c8bff" stop-opacity="0"/>
    </radialGradient>
    <radialGradient id="glow2" cx="85%" cy="20%" r="60%">
      <stop offset="0%" stop-color="#d08cff" stop-opacity="0.55"/>
      <stop offset="70%" stop-color="#d08cff" stop-opacity="0"/>
    </radialGradient>
    <radialGradient id="glow3" cx="55%" cy="120%" r="70%">
      <stop offset="0%" stop-color="#22c55e" stop-opacity="0.28"/>
      <stop offset="70%" stop-color="#22c55e" stop-opacity="0"/>
    </radialGradient>
    <filter id="blur" x="-20%" y="-20%" width="140%" height="140%">
      <feGaussianBlur stdDeviation="18"/>
    </filter>
    <linearGradient id="mark" x1="0" y1="0" x2="1" y2="1">
      <stop offset="0%" stop-color="#5b6cff"/>
      <stop offset="100%" stop-color="#a855f7"/>
    </linearGradient>
    <filter id="shadow" x="-40%" y="-40%" width="180%" height="180%">
      <feDropShadow dx="0" dy="16" stdDeviation="20" flood-color="#000" flood-opacity="0.45"/>
    </filter>
  </defs>

  <rect width="1200" height="340" fill="url(#bg)"/>
  <g filter="url(#blur)">
    <circle cx="180" cy="70" r="220" fill="url(#glow1)"/>
    <circle cx="1040" cy="80" r="240" fill="url(#glow2)"/>
    <circle cx="680" cy="360" r="260" fill="url(#glow3)"/>
  </g>

  <g transform="translate(72,64)" filter="url(#shadow)">
    <rect x="0" y="0" width="88" height="88" rx="26" fill="url(#mark)"/>
    <path d="M24 66V22h18c16 0 22 7 22 16 0 7-4 13-12 15l13 13H60L48 53h-6v13H24Zm18-28h6c7 0 10-3 10-7s-3-7-10-7h-6v14Z" fill="#fff" fill-opacity="0.95"/>
  </g>

  <g transform="translate(182,74)">
    <text x="0" y="34" font-family="ui-sans-serif, system-ui, -apple-system, Segoe UI, Roboto, Arial" font-size="44" font-weight="820" fill="#eaf0ff">K-beat</text>
    <text x="0" y="72" font-family="ui-sans-serif, system-ui, -apple-system, Segoe UI, Roboto, Arial" font-size="16" font-weight="520" fill="rgba(234,240,255,0.76)">
      把每件事都打在节拍上 · Spring Boot + FreeMarker · 渐进增强 · 持久化
    </text>
    <g transform="translate(0,98)">
      <rect x="0" y="0" width="402" height="46" rx="16" fill="rgba(255,255,255,0.08)" stroke="rgba(255,255,255,0.14)"/>
      <text x="18" y="30" font-family="ui-sans-serif, system-ui, -apple-system, Segoe UI, Roboto, Arial" font-size="14" fill="rgba(234,240,255,0.84)">
        支持：暗色模式 · 逾期/今日提醒 · 撤销完成 · JSON API
      </text>
    </g>
  </g>

  <g opacity="0.55">
    <path d="M990 250c48 0 86 18 86 40s-38 40-86 40-86-18-86-40 38-40 86-40Z" fill="rgba(255,255,255,0.05)"/>
    <path d="M980 262c36 0 65 13 65 28s-29 28-65 28-65-13-65-28 29-28 65-28Z" fill="rgba(255,255,255,0.045)"/>
  </g>
</svg>
